<svg width="28" height="28" viewBox="0 0 28 28" fill="none" xmlns="http://www.w3.org/2000/svg">
<path d="M23.7858 12.4573L17.3558 6.51051C16.9889 6.18179 16.5135 6 16.0208 6C15.5281 6 15.0527 6.18179 14.6858 6.51051L6.7558 13.8366C6.51611 14.06 6.32562 14.331 6.1965 14.6321C6.06737 14.9333 6.00242 15.258 6.0058 15.5856V23.7112C5.9814 24.2929 6.18876 24.8604 6.58243 25.2895C6.97609 25.7185 7.52393 25.9741 8.1058 26H10.5258C11.1077 25.9741 11.6555 25.7185 12.0492 25.2895C12.4428 24.8604 12.6502 24.2929 12.6258 23.7112V21.4025C12.6014 20.8208 12.8088 20.2533 13.2024 19.8242C13.5961 19.3952 14.1439 19.1397 14.7258 19.1137H17.2858C17.8677 19.1397 18.4155 19.3952 18.8092 19.8242C19.2028 20.2533 19.4102 20.8208 19.3858 21.4025V23.7112C19.3614 24.2929 19.5688 24.8604 19.9624 25.2895C20.3561 25.7185 20.9039 25.9741 21.4858 26H23.9058C24.4877 25.9741 25.0355 25.7185 25.4292 25.2895C25.8228 24.8604 26.0302 24.2929 26.0058 23.7112V18.0043" fill="#FCBB2F"/>
<path d="M8.22193 12.4573L14.6519 6.51051C15.0188 6.18179 15.4942 6 15.9869 6C16.4797 6 16.955 6.18179 17.3219 6.51051L25.2519 13.8366C25.4916 14.06 25.6821 14.331 25.8112 14.6321C25.9404 14.9333 26.0053 15.258 26.0019 15.5856V23.7112C26.0263 24.2929 25.819 24.8604 25.4253 25.2895C25.0316 25.7185 24.4838 25.9741 23.9019 26H21.4819C20.9001 25.9741 20.3522 25.7185 19.9586 25.2895C19.5649 24.8604 19.3575 24.2929 19.3819 23.7112V21.4025C19.4063 20.8208 19.199 20.2533 18.8053 19.8242C18.4116 19.3952 17.8638 19.1397 17.2819 19.1137H14.7219C14.1401 19.1397 13.5922 19.3952 13.1986 19.8242C12.8049 20.2533 12.5975 20.8208 12.6219 21.4025V23.7112C12.6463 24.2929 12.439 24.8604 12.0453 25.2895C11.6516 25.7185 11.1038 25.9741 10.5219 26H8.10193C7.52006 25.9741 6.97222 25.7185 6.57856 25.2895C6.18489 24.8604 5.97753 24.2929 6.00193 23.7112V18.0043" fill="#FCBB2F"/>
<path fill-rule="evenodd" clip-rule="evenodd" d="M12.0127 3.75494C12.563 3.26185 13.2761 2.98923 14.015 2.98923C14.7539 2.98923 15.4669 3.26185 16.0173 3.75494L16.029 3.76558L22.459 9.71237C22.8644 10.0874 22.8891 10.72 22.5141 11.1255C22.1391 11.531 21.5065 11.5557 21.101 11.1807L14.6778 5.24017C14.495 5.07858 14.2593 4.98923 14.015 4.98923C13.7706 4.98923 13.5348 5.07863 13.352 5.2403L5.43194 12.5572C5.43147 12.5576 5.431 12.558 5.43054 12.5585C5.29309 12.687 5.18386 12.8426 5.10974 13.0155C5.03538 13.1889 4.99798 13.3759 4.99993 13.5645L5.00004 13.5748H4.99998V21.7005C4.99998 21.7144 4.99969 21.7284 4.9991 21.7424C4.9858 22.0593 5.09879 22.3687 5.31344 22.6026C5.52384 22.832 5.81512 22.9705 6.1256 22.9892H8.49436C8.80485 22.9705 9.09612 22.832 9.30652 22.6026C9.52118 22.3687 9.63416 22.0593 9.62086 21.7424C9.62028 21.7284 9.61998 21.7144 9.61998 21.7005V19.4107C9.59082 18.5724 9.89226 17.7559 10.4598 17.1374C11.0324 16.5133 11.8292 16.1417 12.6754 16.1039C12.6903 16.1033 12.7051 16.1029 12.72 16.1029H15.28C15.2948 16.1029 15.3097 16.1033 15.3245 16.1039C16.1707 16.1417 16.9675 16.5133 17.5402 17.1374C18.1077 17.7559 18.4091 18.5724 18.38 19.4107V21.7005C18.38 21.7144 18.3797 21.7284 18.3791 21.7424C18.3658 22.0593 18.4788 22.3687 18.6934 22.6026C18.9038 22.832 19.1951 22.9705 19.5056 22.9892H21.8744C22.1848 22.9705 22.4761 22.832 22.6865 22.6026C22.9012 22.3687 23.0142 22.0593 23.0009 21.7424C23.0003 21.7284 23 21.7144 23 21.7005V15.9935C23 15.4413 23.4477 14.9935 24 14.9935C24.5523 14.9935 25 15.4413 25 15.9935V21.6814C25.0291 22.5197 24.7277 23.3363 24.1602 23.9548C23.5875 24.5789 22.7907 24.9505 21.9445 24.9882C21.9297 24.9889 21.9148 24.9892 21.9 24.9892H19.48C19.4651 24.9892 19.4503 24.9889 19.4354 24.9882C18.5892 24.9505 17.7924 24.5789 17.2198 23.9548C16.6523 23.3363 16.3508 22.5198 16.38 21.6814V19.3917C16.38 19.3834 16.3801 19.3751 16.3803 19.3668C16.3804 19.3611 16.3806 19.3554 16.3809 19.3498C16.3942 19.0328 16.2812 18.7235 16.0665 18.4895C15.8561 18.2602 15.5648 18.1217 15.2543 18.1029H12.7456C12.4351 18.1217 12.1438 18.2602 11.9334 18.4895C11.7188 18.7235 11.6058 19.0328 11.6191 19.3498C11.6197 19.3637 11.62 19.3777 11.62 19.3917V21.6814C11.6491 22.5197 11.3477 23.3363 10.7802 23.9548C10.2075 24.5789 9.41073 24.9505 8.56454 24.9882C8.54969 24.9889 8.53484 24.9892 8.51998 24.9892H6.09998C6.08513 24.9892 6.07027 24.9889 6.05543 24.9882C5.20923 24.9505 4.41242 24.5789 3.83977 23.9548C3.27226 23.3363 2.97082 22.5198 2.99998 21.6814V13.5795C2.99596 13.1149 3.08845 12.6544 3.27161 12.2273C3.4555 11.7984 3.72674 11.4126 4.06803 11.0944L4.07139 11.0913L4.0714 11.0913L12.0014 3.76521L12.0127 3.75494Z" fill="black"/>
</svg>
