<svg width="22" height="22" viewBox="0 0 22 22" fill="none" xmlns="http://www.w3.org/2000/svg">
<path d="M18.8999 22H16.4799C15.6338 21.9713 14.8332 21.6094 14.2526 20.9932C13.672 20.377 13.3584 19.5564 13.3799 18.71V16.4C13.4022 16.0837 13.2993 15.7714 13.0936 15.5302C12.8879 15.2889 12.5957 15.138 12.2799 15.11H9.71995C9.40415 15.138 9.11197 15.2889 8.90626 15.5302C8.70055 15.7714 8.59774 16.0837 8.61995 16.4V18.71C8.64153 19.5564 8.32787 20.377 7.74726 20.9932C7.16665 21.6094 6.36611 21.9713 5.51995 22H3.09995C2.25379 21.9713 1.45324 21.6094 0.872632 20.9932C0.292019 20.377 -0.0216418 19.5564 -5.37308e-05 18.71V10.58C-0.00315609 10.1136 0.0903063 9.65159 0.274453 9.22307C0.458599 8.79454 0.729445 8.40876 1.06995 8.09L8.99995 0.800004C9.54997 0.308049 10.262 0.0360718 10.9999 0.0360718C11.7379 0.0360718 12.4499 0.308049 12.9999 0.800004L19.4599 6.8C19.6549 6.98035 19.7702 7.23075 19.7805 7.49611C19.7908 7.76148 19.6953 8.02007 19.5149 8.215C19.3346 8.40994 19.0842 8.52524 18.8188 8.53556C18.5535 8.54587 18.2949 8.45035 18.0999 8.27L11.6699 2.24C11.4881 2.0824 11.2556 1.99563 11.0149 1.99563C10.7743 1.99563 10.5418 2.0824 10.3599 2.24L2.41995 9.56C2.28603 9.68968 2.17977 9.84514 2.10758 10.017C2.0354 10.1889 1.99878 10.3736 1.99995 10.56V18.69C1.97222 19.0096 2.07251 19.3271 2.27877 19.5727C2.48504 19.8184 2.78041 19.972 3.09995 20H5.51995C5.83574 19.972 6.12792 19.8211 6.33363 19.5799C6.53934 19.3386 6.64215 19.0263 6.61995 18.71V16.4C6.59836 15.5536 6.91202 14.733 7.49263 14.1168C8.07324 13.5006 8.87379 13.1387 9.71995 13.11H12.2799C13.1261 13.1387 13.9266 13.5006 14.5073 14.1168C15.0879 14.733 15.4015 15.5536 15.3799 16.4V18.71C15.3577 19.0263 15.4606 19.3386 15.6663 19.5799C15.872 19.8211 16.1641 19.972 16.4799 20H18.8999C19.2157 19.972 19.5079 19.8211 19.7136 19.5799C19.9193 19.3386 20.0222 19.0263 19.9999 18.71V13C19.9999 12.7348 20.1053 12.4804 20.2928 12.2929C20.4804 12.1054 20.7347 12 20.9999 12C21.2652 12 21.5195 12.1054 21.7071 12.2929C21.8946 12.4804 21.9999 12.7348 21.9999 13V18.75C22.0109 19.5895 21.6925 20.3999 21.113 21.0075C20.5335 21.615 19.739 21.9713 18.8999 22Z" fill="#686B6B"/>
</svg>
