<svg width="28" height="28" viewBox="0 0 28 28" fill="none" xmlns="http://www.w3.org/2000/svg">
<rect x="5" y="5" width="22" height="22" rx="3" fill="#FCBB2F"/>
<path fill-rule="evenodd" clip-rule="evenodd" d="M6 5C5.73478 5 5.48043 5.10536 5.29289 5.29289C5.10536 5.48043 5 5.73478 5 6V20C5 20.5523 4.55228 21 4 21C3.44772 21 3 20.5523 3 20V6C3 5.20435 3.31607 4.44129 3.87868 3.87868C4.44129 3.31607 5.20435 3 6 3H22C22.7957 3 23.5587 3.31607 24.1213 3.87868C24.6839 4.44129 25 5.20435 25 6V22C25 22.7957 24.6839 23.5587 24.1213 24.1213C23.5587 24.6839 22.7957 25 22 25H8C7.44772 25 7 24.5523 7 24C7 23.4477 7.44772 23 8 23H22C22.2652 23 22.5196 22.8946 22.7071 22.7071C22.8946 22.5196 23 22.2652 23 22V6C23 5.73478 22.8946 5.48043 22.7071 5.29289C22.5196 5.10536 22.2652 5 22 5H6Z" fill="black"/>
<path fill-rule="evenodd" clip-rule="evenodd" d="M19.7076 9.9034C20.0979 10.2942 20.0974 10.9274 19.7066 11.3176L12.9166 18.0976C12.526 18.4876 11.8932 18.4874 11.5029 18.0971L8.29289 14.8871C7.90237 14.4966 7.90237 13.8634 8.29289 13.4729C8.68342 13.0824 9.31658 13.0824 9.70711 13.4729L12.2105 15.9763L18.2934 9.90236C18.6842 9.51212 19.3174 9.51259 19.7076 9.9034Z" fill="black"/>
</svg>
