<svg width="28" height="28" viewBox="0 0 28 28" fill="none" xmlns="http://www.w3.org/2000/svg">
<circle cx="14" cy="14" r="14" fill="#FCBB2F"/>
<path d="M11.9165 19C11.7797 19.001 11.6442 18.9742 11.5181 18.9212C11.3921 18.8682 11.2781 18.7901 11.1832 18.6917L7.43315 14.9417C7.23866 14.7472 7.12939 14.4834 7.12939 14.2083C7.12939 13.9333 7.23866 13.6695 7.43315 13.475C7.62764 13.2805 7.89143 13.1712 8.16648 13.1712C8.44154 13.1712 8.70533 13.2805 8.89982 13.475L11.9165 16.5L19.0998 9.325C19.1961 9.22869 19.3104 9.1523 19.4363 9.10018C19.5621 9.04807 19.697 9.02124 19.8331 9.02124C19.9693 9.02124 20.1042 9.04807 20.23 9.10018C20.3559 9.1523 20.4702 9.22869 20.5665 9.325C20.6628 9.4213 20.7392 9.53563 20.7913 9.66145C20.8434 9.78728 20.8702 9.92214 20.8702 10.0583C20.8702 10.1945 20.8434 10.3294 20.7913 10.4552C20.7392 10.581 20.6628 10.6954 20.5665 10.7917L12.6498 18.7083C12.5535 18.8038 12.4389 18.8788 12.3129 18.9289C12.1869 18.979 12.052 19.0032 11.9165 19Z" fill="white"/>
</svg>
