<svg width="28" height="28" viewBox="0 0 28 28" fill="none" xmlns="http://www.w3.org/2000/svg">
<path fill-rule="evenodd" clip-rule="evenodd" d="M6.35 5C5.99196 5 5.64858 5.14223 5.39541 5.39541C5.14223 5.64858 5 5.99196 5 6.35V19.29C5 19.8423 4.55228 20.29 4 20.29C3.44772 20.29 3 19.8423 3 19.29V6.35C3 5.46152 3.35295 4.60944 3.98119 3.98119C4.60944 3.35295 5.46152 3 6.35 3H21.65C22.0899 3 22.5255 3.08665 22.932 3.255C23.3384 3.42336 23.7077 3.67012 24.0188 3.98119C24.3299 4.29227 24.5766 4.66157 24.745 5.06801C24.9134 5.47445 25 5.91007 25 6.35V21.65C25 22.0899 24.9134 22.5255 24.745 22.932C24.5766 23.3384 24.3299 23.7077 24.0188 24.0188C23.7077 24.3299 23.3384 24.5766 22.932 24.745C22.5255 24.9134 22.0899 25 21.65 25H8.71C8.15772 25 7.71 24.5523 7.71 24C7.71 23.4477 8.15772 23 8.71 23H21.65C21.8273 23 22.0028 22.9651 22.1666 22.8972C22.3304 22.8294 22.4792 22.73 22.6046 22.6046C22.73 22.4792 22.8294 22.3304 22.8972 22.1666C22.9651 22.0028 23 21.8273 23 21.65V6.35C23 6.17271 22.9651 5.99717 22.8972 5.83338C22.8294 5.66959 22.73 5.52077 22.6046 5.39541C22.4792 5.27005 22.3304 5.17061 22.1666 5.10276C22.0028 5.03492 21.8273 5 21.65 5H6.35Z" fill="#686B6B"/>
<path fill-rule="evenodd" clip-rule="evenodd" d="M19.7076 9.90342C20.0979 10.2942 20.0974 10.9274 19.7066 11.3176L12.9166 18.0976C12.526 18.4877 11.8932 18.4874 11.5029 18.0971L8.29289 14.8871C7.90237 14.4966 7.90237 13.8634 8.29289 13.4729C8.68342 13.0824 9.31658 13.0824 9.70711 13.4729L12.2105 15.9763L18.2934 9.90237C18.6842 9.51214 19.3174 9.5126 19.7076 9.90342Z" fill="#686B6B"/>
</svg>
