<svg width="28" height="28" viewBox="0 0 28 28" fill="none" xmlns="http://www.w3.org/2000/svg">
<path d="M15.9984 14C18.2076 14 19.9984 12.2091 19.9984 10C19.9984 7.79086 18.2076 6 15.9984 6C13.7893 6 11.9984 7.79086 11.9984 10C11.9984 12.2091 13.7893 14 15.9984 14Z" fill="#FCBB2F"/>
<path d="M20.4784 25.9999L25.9184 15.8599C26.0348 15.5366 26.0253 15.1813 25.8919 14.8645C25.7586 14.5478 25.511 14.2927 25.1984 14.1499C24.9286 14.017 24.6244 13.9707 24.3273 14.0172C24.0301 14.0638 23.7546 14.2009 23.5384 14.4099L21.5384 16.3499C20.0486 17.78 18.0635 18.5786 15.9984 18.5786C13.9333 18.5786 11.9482 17.78 10.4584 16.3499L8.45841 14.4099C8.24218 14.2009 7.96668 14.0638 7.66956 14.0172C7.37244 13.9707 7.06819 14.017 6.79841 14.1499C6.48734 14.2945 6.24126 14.5497 6.10814 14.8659C5.97503 15.182 5.96443 15.5364 6.07841 15.8599L11.1684 25.9999" fill="#FCBB2F"/>
<path fill-rule="evenodd" clip-rule="evenodd" d="M14 5C12.3431 5 11 6.34315 11 8C11 9.65685 12.3431 11 14 11C15.6569 11 17 9.65685 17 8C17 6.34315 15.6569 5 14 5ZM9 8C9 5.23858 11.2386 3 14 3C16.7614 3 19 5.23858 19 8C19 10.7614 16.7614 13 14 13C11.2386 13 9 10.7614 9 8Z" fill="black"/>
<path fill-rule="evenodd" clip-rule="evenodd" d="M4.3682 11.248C4.82024 11.0279 5.32898 10.9515 5.82589 11.0293C6.32652 11.1077 6.79072 11.3388 7.15504 11.691L7.15625 11.6922L9.1543 13.6303C10.4577 14.8806 12.1939 15.5787 14 15.5787C15.8061 15.5787 17.5423 14.8806 18.8457 13.6303C18.8463 13.6297 18.8469 13.6292 18.8475 13.6286L20.8437 11.6922L20.8449 11.691C21.2093 11.3388 21.6735 11.1077 22.1741 11.0293C22.6699 10.9517 23.1775 11.0275 23.6288 11.2466C24.1633 11.4947 24.5864 11.9331 24.8152 12.4765C25.0459 13.0245 25.0622 13.6391 24.8609 14.1985C24.8443 14.2447 24.8244 14.2896 24.8012 14.3328L19.3612 24.4728C19.1001 24.9594 18.4939 25.1423 18.0072 24.8812C17.5206 24.6201 17.3377 24.0139 17.5988 23.5273L22.9929 13.4729C23.0084 13.3994 23.0013 13.3226 22.9719 13.2526C22.9359 13.1671 22.869 13.0982 22.7846 13.0596L23.2 12.15L22.7581 13.0471C22.6731 13.0052 22.5772 12.9906 22.4836 13.0052C22.3903 13.0199 22.3037 13.0628 22.2357 13.1284C22.2355 13.1286 22.2353 13.1288 22.235 13.129L20.2363 15.0678L20.2325 15.0714C18.5565 16.6803 16.3232 17.5787 14 17.5787C11.6768 17.5787 9.44352 16.6803 7.7675 15.0714L7.76373 15.0678L7.76374 15.0678L5.76495 13.129C5.76481 13.1288 5.76467 13.1287 5.76453 13.1286C5.69647 13.0629 5.60983 13.0199 5.51641 13.0052C5.42279 12.9906 5.32693 13.0052 5.24193 13.0471L5.22144 13.0569C5.13578 13.0967 5.06802 13.167 5.03137 13.254C5.00039 13.3276 4.99351 13.4087 5.01105 13.4858L10.0637 23.5514C10.3115 24.045 10.1122 24.646 9.61862 24.8937C9.12503 25.1415 8.52404 24.9422 8.27627 24.4486L3.18627 14.3086C3.16735 14.2709 3.15083 14.2321 3.13681 14.1923C2.94024 13.6343 2.95853 13.0231 3.1881 12.4779C3.41619 11.9362 3.83661 11.4982 4.3682 11.248Z" fill="black"/>
</svg>
