<svg width="28" height="28" viewBox="0 0 28 28" fill="none" xmlns="http://www.w3.org/2000/svg">
<path d="M21 3H9C8.73478 3 8.48043 3.10536 8.29289 3.29289C8.10536 3.48043 8 3.73478 8 4C8 4.26522 8.10536 4.51957 8.29289 4.70711C8.48043 4.89464 8.73478 5 9 5H21C21.1411 4.99914 21.2808 5.02816 21.4099 5.08515C21.539 5.14214 21.6546 5.2258 21.749 5.33065C21.8435 5.43549 21.9147 5.55914 21.9579 5.69346C22.0012 5.82778 22.0155 5.96974 22 6.11V21.89C22.0155 22.0303 22.0012 22.1722 21.9579 22.3065C21.9147 22.4409 21.8435 22.5645 21.749 22.6694C21.6546 22.7742 21.539 22.8579 21.4099 22.9149C21.2808 22.9718 21.1411 23.0009 21 23H7.23C6.92667 22.9908 6.63648 22.8742 6.41118 22.6708C6.18589 22.4675 6.04016 22.1908 6 21.89V8C6 7.73478 5.89464 7.48043 5.70711 7.29289C5.51957 7.10536 5.26522 7 5 7C4.73478 7 4.48043 7.10536 4.29289 7.29289C4.10536 7.48043 4 7.73478 4 8V22C4.06951 22.8119 4.43878 23.5689 5.03588 24.1235C5.63298 24.6781 6.41514 24.9905 7.23 25H21C21.4034 25.0003 21.8027 24.9192 22.174 24.7616C22.5454 24.604 22.8811 24.3731 23.1612 24.0828C23.4412 23.7925 23.6599 23.4486 23.804 23.0719C23.9481 22.6951 24.0148 22.2931 24 21.89V6.11C24.0148 5.70688 23.9481 5.30491 23.804 4.92814C23.6599 4.55137 23.4412 4.20754 23.1612 3.91721C22.8811 3.62688 22.5454 3.39601 22.174 3.23841C21.8027 3.08082 21.4034 2.99973 21 3Z" fill="#686B6B"/>
<path d="M9 13H13C13.2652 13 13.5196 12.8946 13.7071 12.7071C13.8946 12.5196 14 12.2652 14 12V8C14 7.73478 13.8946 7.48043 13.7071 7.29289C13.5196 7.10536 13.2652 7 13 7H9C8.73478 7 8.48043 7.10536 8.29289 7.29289C8.10536 7.48043 8 7.73478 8 8V12C8 12.2652 8.10536 12.5196 8.29289 12.7071C8.48043 12.8946 8.73478 13 9 13ZM10 9H12V11H10V9Z" fill="#686B6B"/>
<path d="M9 17H19C19.2652 17 19.5196 16.8946 19.7071 16.7071C19.8946 16.5196 20 16.2652 20 16C20 15.7348 19.8946 15.4804 19.7071 15.2929C19.5196 15.1054 19.2652 15 19 15H9C8.73478 15 8.48043 15.1054 8.29289 15.2929C8.10536 15.4804 8 15.7348 8 16C8 16.2652 8.10536 16.5196 8.29289 16.7071C8.48043 16.8946 8.73478 17 9 17Z" fill="#686B6B"/>
<path d="M9 21H19C19.2652 21 19.5196 20.8946 19.7071 20.7071C19.8946 20.5196 20 20.2652 20 20C20 19.7348 19.8946 19.4804 19.7071 19.2929C19.5196 19.1054 19.2652 19 19 19H9C8.73478 19 8.48043 19.1054 8.29289 19.2929C8.10536 19.4804 8 19.7348 8 20C8 20.2652 8.10536 20.5196 8.29289 20.7071C8.48043 20.8946 8.73478 21 9 21Z" fill="#686B6B"/>
</svg>
